<mxfile host="app.diagrams.net" modified="2023-04-24T09:55:09.225Z" agent="Mozilla/5.0 (Macintosh; Intel Mac OS X 10_15_7) AppleWebKit/537.36 (KHTML, like Gecko) Chrome/112.0.0.0 Safari/537.36" etag="WQ2wfxc5G2nmlNcI73lW" version="21.2.1" type="github">
  <diagram id="vMUE3m7khSlnGyN7Ei7Q" name="Page-1">
    <mxGraphModel dx="844" dy="420" grid="0" gridSize="10" guides="1" tooltips="1" connect="1" arrows="1" fold="1" page="0" pageScale="1" pageWidth="827" pageHeight="1169" math="0" shadow="0">
      <root>
        <mxCell id="0" />
        <mxCell id="1" parent="0" />
        <mxCell id="6aKqZ11WGvorcc52aC_h-90" value="" style="rounded=0;whiteSpace=wrap;html=1;fillColor=none;shadow=0;dashed=1;" vertex="1" parent="1">
          <mxGeometry y="1390" width="350" height="290" as="geometry" />
        </mxCell>
        <mxCell id="6aKqZ11WGvorcc52aC_h-4" style="edgeStyle=orthogonalEdgeStyle;rounded=0;orthogonalLoop=1;jettySize=auto;html=1;exitX=0.5;exitY=0;exitDx=0;exitDy=0;entryX=0.5;entryY=1;entryDx=0;entryDy=0;" edge="1" parent="1" source="W3VzuPaif6dFzCowXKQo-1" target="6aKqZ11WGvorcc52aC_h-3">
          <mxGeometry relative="1" as="geometry" />
        </mxCell>
        <mxCell id="6aKqZ11WGvorcc52aC_h-13" style="edgeStyle=orthogonalEdgeStyle;rounded=0;orthogonalLoop=1;jettySize=auto;html=1;exitX=1;exitY=0.5;exitDx=0;exitDy=0;entryX=0;entryY=0.5;entryDx=0;entryDy=0;" edge="1" parent="1" source="W3VzuPaif6dFzCowXKQo-1" target="6aKqZ11WGvorcc52aC_h-9">
          <mxGeometry relative="1" as="geometry" />
        </mxCell>
        <mxCell id="W3VzuPaif6dFzCowXKQo-1" value="Исходный набор задач приложения" style="rounded=0;whiteSpace=wrap;html=1;fillColor=#d5e8d4;strokeColor=#82b366;shadow=0;glass=0;" parent="1" vertex="1">
          <mxGeometry x="80" y="320" width="120" height="60" as="geometry" />
        </mxCell>
        <mxCell id="W3VzuPaif6dFzCowXKQo-8" value="" style="edgeStyle=orthogonalEdgeStyle;rounded=0;orthogonalLoop=1;jettySize=auto;html=1;" parent="1" source="W3VzuPaif6dFzCowXKQo-5" target="W3VzuPaif6dFzCowXKQo-7" edge="1">
          <mxGeometry relative="1" as="geometry" />
        </mxCell>
        <mxCell id="W3VzuPaif6dFzCowXKQo-5" value="Модифицированный набор задач приложения&amp;nbsp;" style="whiteSpace=wrap;html=1;fillColor=#d5e8d4;strokeColor=#82b366;" parent="1" vertex="1">
          <mxGeometry x="480" y="320" width="120" height="60" as="geometry" />
        </mxCell>
        <mxCell id="W3VzuPaif6dFzCowXKQo-10" value="" style="edgeStyle=orthogonalEdgeStyle;rounded=0;orthogonalLoop=1;jettySize=auto;html=1;" parent="1" source="W3VzuPaif6dFzCowXKQo-7" target="W3VzuPaif6dFzCowXKQo-9" edge="1">
          <mxGeometry relative="1" as="geometry" />
        </mxCell>
        <mxCell id="W3VzuPaif6dFzCowXKQo-7" value="Система моделирования&amp;nbsp;" style="shape=hexagon;perimeter=hexagonPerimeter2;whiteSpace=wrap;html=1;fixedSize=1;fillColor=#e1d5e7;strokeColor=#9673a6;" parent="1" vertex="1">
          <mxGeometry x="680" y="310" width="120" height="80" as="geometry" />
        </mxCell>
        <mxCell id="W3VzuPaif6dFzCowXKQo-20" value="" style="edgeStyle=orthogonalEdgeStyle;rounded=0;orthogonalLoop=1;jettySize=auto;html=1;" parent="1" source="W3VzuPaif6dFzCowXKQo-9" target="W3VzuPaif6dFzCowXKQo-19" edge="1">
          <mxGeometry relative="1" as="geometry" />
        </mxCell>
        <mxCell id="W3VzuPaif6dFzCowXKQo-9" value="Выходные данные с временными интервалами задач" style="whiteSpace=wrap;html=1;fillColor=#d5e8d4;strokeColor=#82b366;" parent="1" vertex="1">
          <mxGeometry x="680" y="480" width="120" height="60" as="geometry" />
        </mxCell>
        <mxCell id="W3VzuPaif6dFzCowXKQo-14" value="" style="edgeStyle=orthogonalEdgeStyle;rounded=0;orthogonalLoop=1;jettySize=auto;html=1;" parent="1" target="W3VzuPaif6dFzCowXKQo-13" edge="1">
          <mxGeometry relative="1" as="geometry">
            <mxPoint x="480" y="510" as="sourcePoint" />
          </mxGeometry>
        </mxCell>
        <mxCell id="W3VzuPaif6dFzCowXKQo-22" value="" style="edgeStyle=orthogonalEdgeStyle;rounded=0;orthogonalLoop=1;jettySize=auto;html=1;" parent="1" source="W3VzuPaif6dFzCowXKQo-13" target="W3VzuPaif6dFzCowXKQo-21" edge="1">
          <mxGeometry relative="1" as="geometry" />
        </mxCell>
        <mxCell id="W3VzuPaif6dFzCowXKQo-13" value="Данные вида:&lt;br&gt;Задача - интервалы" style="whiteSpace=wrap;html=1;fillColor=#d5e8d4;strokeColor=#82b366;" parent="1" vertex="1">
          <mxGeometry x="280" y="480" width="120" height="60" as="geometry" />
        </mxCell>
        <mxCell id="W3VzuPaif6dFzCowXKQo-18" value="" style="edgeStyle=orthogonalEdgeStyle;rounded=0;orthogonalLoop=1;jettySize=auto;html=1;" parent="1" target="W3VzuPaif6dFzCowXKQo-17" edge="1">
          <mxGeometry relative="1" as="geometry">
            <mxPoint x="140" y="540" as="sourcePoint" />
          </mxGeometry>
        </mxCell>
        <mxCell id="W3VzuPaif6dFzCowXKQo-17" value="Картинка" style="rhombus;whiteSpace=wrap;html=1;fillColor=#f8cecc;strokeColor=#b85450;" parent="1" vertex="1">
          <mxGeometry x="100" y="610" width="80" height="80" as="geometry" />
        </mxCell>
        <mxCell id="W3VzuPaif6dFzCowXKQo-19" value="Парсер" style="shape=hexagon;perimeter=hexagonPerimeter2;whiteSpace=wrap;html=1;fixedSize=1;fillColor=#e1d5e7;strokeColor=#9673a6;" parent="1" vertex="1">
          <mxGeometry x="480" y="470" width="120" height="80" as="geometry" />
        </mxCell>
        <mxCell id="W3VzuPaif6dFzCowXKQo-21" value="Визуализатор" style="shape=hexagon;perimeter=hexagonPerimeter2;whiteSpace=wrap;html=1;fixedSize=1;fillColor=#e1d5e7;strokeColor=#9673a6;" parent="1" vertex="1">
          <mxGeometry x="80" y="470" width="120" height="80" as="geometry" />
        </mxCell>
        <mxCell id="6aKqZ11WGvorcc52aC_h-12" style="edgeStyle=orthogonalEdgeStyle;rounded=0;orthogonalLoop=1;jettySize=auto;html=1;exitX=1;exitY=0.5;exitDx=0;exitDy=0;entryX=0.5;entryY=1;entryDx=0;entryDy=0;" edge="1" parent="1" source="6aKqZ11WGvorcc52aC_h-1" target="6aKqZ11WGvorcc52aC_h-9">
          <mxGeometry relative="1" as="geometry" />
        </mxCell>
        <mxCell id="6aKqZ11WGvorcc52aC_h-1" value="Информация&lt;br style=&quot;border-color: var(--border-color);&quot;&gt;о&lt;br style=&quot;border-color: var(--border-color);&quot;&gt;сбое&amp;nbsp;" style="rounded=0;whiteSpace=wrap;html=1;fillColor=#d5e8d4;strokeColor=#82b366;" vertex="1" parent="1">
          <mxGeometry x="80" y="388" width="120" height="60" as="geometry" />
        </mxCell>
        <mxCell id="6aKqZ11WGvorcc52aC_h-6" style="edgeStyle=orthogonalEdgeStyle;rounded=0;orthogonalLoop=1;jettySize=auto;html=1;exitX=1;exitY=0.5;exitDx=0;exitDy=0;" edge="1" parent="1" source="6aKqZ11WGvorcc52aC_h-3" target="6aKqZ11WGvorcc52aC_h-5">
          <mxGeometry relative="1" as="geometry" />
        </mxCell>
        <mxCell id="6aKqZ11WGvorcc52aC_h-3" value="Система моделирования&amp;nbsp;" style="shape=hexagon;perimeter=hexagonPerimeter2;whiteSpace=wrap;html=1;fixedSize=1;fillColor=#e1d5e7;strokeColor=#9673a6;" vertex="1" parent="1">
          <mxGeometry x="80" y="200" width="120" height="80" as="geometry" />
        </mxCell>
        <mxCell id="6aKqZ11WGvorcc52aC_h-14" style="edgeStyle=orthogonalEdgeStyle;rounded=0;orthogonalLoop=1;jettySize=auto;html=1;exitX=0.5;exitY=1;exitDx=0;exitDy=0;entryX=0.5;entryY=0;entryDx=0;entryDy=0;" edge="1" parent="1" source="6aKqZ11WGvorcc52aC_h-5" target="6aKqZ11WGvorcc52aC_h-9">
          <mxGeometry relative="1" as="geometry" />
        </mxCell>
        <mxCell id="6aKqZ11WGvorcc52aC_h-5" value="Выходные данные с временными интервалами задач" style="rounded=0;whiteSpace=wrap;html=1;fillColor=#d5e8d4;strokeColor=#82b366;" vertex="1" parent="1">
          <mxGeometry x="280" y="210" width="120" height="60" as="geometry" />
        </mxCell>
        <mxCell id="6aKqZ11WGvorcc52aC_h-15" style="edgeStyle=orthogonalEdgeStyle;rounded=0;orthogonalLoop=1;jettySize=auto;html=1;exitX=1;exitY=0.5;exitDx=0;exitDy=0;" edge="1" parent="1" source="6aKqZ11WGvorcc52aC_h-9" target="W3VzuPaif6dFzCowXKQo-5">
          <mxGeometry relative="1" as="geometry" />
        </mxCell>
        <mxCell id="6aKqZ11WGvorcc52aC_h-9" value="&amp;nbsp;Модификатор&amp;nbsp;&lt;br style=&quot;border-color: var(--border-color);&quot;&gt;&lt;span style=&quot;border-color: var(--border-color);&quot;&gt;данных&lt;/span&gt;" style="shape=hexagon;perimeter=hexagonPerimeter2;whiteSpace=wrap;html=1;fixedSize=1;fillColor=#e1d5e7;strokeColor=#9673a6;" vertex="1" parent="1">
          <mxGeometry x="280" y="310" width="120" height="80" as="geometry" />
        </mxCell>
        <mxCell id="6aKqZ11WGvorcc52aC_h-16" style="edgeStyle=orthogonalEdgeStyle;rounded=0;orthogonalLoop=1;jettySize=auto;html=1;exitX=0.5;exitY=0;exitDx=0;exitDy=0;entryX=0.5;entryY=1;entryDx=0;entryDy=0;" edge="1" parent="1" source="6aKqZ11WGvorcc52aC_h-18" target="6aKqZ11WGvorcc52aC_h-35">
          <mxGeometry relative="1" as="geometry" />
        </mxCell>
        <mxCell id="6aKqZ11WGvorcc52aC_h-17" style="edgeStyle=orthogonalEdgeStyle;rounded=0;orthogonalLoop=1;jettySize=auto;html=1;exitX=1;exitY=0.5;exitDx=0;exitDy=0;entryX=0;entryY=0.5;entryDx=0;entryDy=0;" edge="1" parent="1" source="6aKqZ11WGvorcc52aC_h-18" target="6aKqZ11WGvorcc52aC_h-39">
          <mxGeometry relative="1" as="geometry" />
        </mxCell>
        <mxCell id="6aKqZ11WGvorcc52aC_h-18" value="Информация о&amp;nbsp;&lt;br&gt;задачах&lt;br&gt;приложения" style="rounded=0;whiteSpace=wrap;html=1;fillColor=#d5e8d4;strokeColor=#82b366;shadow=0;glass=0;" vertex="1" parent="1">
          <mxGeometry x="80" y="880" width="120" height="60" as="geometry" />
        </mxCell>
        <mxCell id="6aKqZ11WGvorcc52aC_h-19" value="" style="edgeStyle=orthogonalEdgeStyle;rounded=0;orthogonalLoop=1;jettySize=auto;html=1;" edge="1" parent="1" source="6aKqZ11WGvorcc52aC_h-20" target="6aKqZ11WGvorcc52aC_h-22">
          <mxGeometry relative="1" as="geometry" />
        </mxCell>
        <mxCell id="6aKqZ11WGvorcc52aC_h-20" value="Модифицированный набор задач приложения&amp;nbsp;" style="whiteSpace=wrap;html=1;fillColor=#d5e8d4;strokeColor=#82b366;" vertex="1" parent="1">
          <mxGeometry x="480" y="880" width="120" height="60" as="geometry" />
        </mxCell>
        <mxCell id="6aKqZ11WGvorcc52aC_h-21" value="" style="edgeStyle=orthogonalEdgeStyle;rounded=0;orthogonalLoop=1;jettySize=auto;html=1;" edge="1" parent="1" source="6aKqZ11WGvorcc52aC_h-22" target="6aKqZ11WGvorcc52aC_h-24">
          <mxGeometry relative="1" as="geometry" />
        </mxCell>
        <mxCell id="6aKqZ11WGvorcc52aC_h-22" value="Система моделирования&amp;nbsp;" style="shape=hexagon;perimeter=hexagonPerimeter2;whiteSpace=wrap;html=1;fixedSize=1;fillColor=#e1d5e7;strokeColor=#9673a6;" vertex="1" parent="1">
          <mxGeometry x="680" y="870" width="120" height="80" as="geometry" />
        </mxCell>
        <mxCell id="6aKqZ11WGvorcc52aC_h-153" style="edgeStyle=orthogonalEdgeStyle;rounded=0;orthogonalLoop=1;jettySize=auto;html=1;exitX=0;exitY=0.5;exitDx=0;exitDy=0;entryX=1;entryY=0.5;entryDx=0;entryDy=0;" edge="1" parent="1" source="6aKqZ11WGvorcc52aC_h-24" target="6aKqZ11WGvorcc52aC_h-27">
          <mxGeometry relative="1" as="geometry" />
        </mxCell>
        <mxCell id="6aKqZ11WGvorcc52aC_h-24" value="Выходные данные с временными интервалами задач" style="whiteSpace=wrap;html=1;fillColor=#d5e8d4;strokeColor=#82b366;" vertex="1" parent="1">
          <mxGeometry x="680" y="1040" width="120" height="60" as="geometry" />
        </mxCell>
        <mxCell id="6aKqZ11WGvorcc52aC_h-26" value="" style="edgeStyle=orthogonalEdgeStyle;rounded=0;orthogonalLoop=1;jettySize=auto;html=1;" edge="1" parent="1" source="6aKqZ11WGvorcc52aC_h-27" target="6aKqZ11WGvorcc52aC_h-31">
          <mxGeometry relative="1" as="geometry" />
        </mxCell>
        <mxCell id="6aKqZ11WGvorcc52aC_h-27" value="Данные вида:&lt;br&gt;Задача - интервалы" style="whiteSpace=wrap;html=1;fillColor=#d5e8d4;strokeColor=#82b366;" vertex="1" parent="1">
          <mxGeometry x="480" y="1040" width="120" height="60" as="geometry" />
        </mxCell>
        <mxCell id="6aKqZ11WGvorcc52aC_h-31" value="Визуализатор" style="shape=hexagon;perimeter=hexagonPerimeter2;whiteSpace=wrap;html=1;fixedSize=1;fillColor=#e1d5e7;strokeColor=#9673a6;" vertex="1" parent="1">
          <mxGeometry x="280" y="1030" width="120" height="80" as="geometry" />
        </mxCell>
        <mxCell id="6aKqZ11WGvorcc52aC_h-32" style="edgeStyle=orthogonalEdgeStyle;rounded=0;orthogonalLoop=1;jettySize=auto;html=1;exitX=1;exitY=0.5;exitDx=0;exitDy=0;entryX=0.5;entryY=1;entryDx=0;entryDy=0;" edge="1" parent="1" source="6aKqZ11WGvorcc52aC_h-33" target="6aKqZ11WGvorcc52aC_h-39">
          <mxGeometry relative="1" as="geometry" />
        </mxCell>
        <mxCell id="6aKqZ11WGvorcc52aC_h-33" value="Информация&lt;br style=&quot;border-color: var(--border-color);&quot;&gt;о&lt;br style=&quot;border-color: var(--border-color);&quot;&gt;сбое&amp;nbsp;" style="rounded=0;whiteSpace=wrap;html=1;fillColor=#d5e8d4;strokeColor=#82b366;" vertex="1" parent="1">
          <mxGeometry x="80" y="948" width="120" height="60" as="geometry" />
        </mxCell>
        <mxCell id="6aKqZ11WGvorcc52aC_h-34" style="edgeStyle=orthogonalEdgeStyle;rounded=0;orthogonalLoop=1;jettySize=auto;html=1;exitX=1;exitY=0.5;exitDx=0;exitDy=0;" edge="1" parent="1" source="6aKqZ11WGvorcc52aC_h-35" target="6aKqZ11WGvorcc52aC_h-37">
          <mxGeometry relative="1" as="geometry" />
        </mxCell>
        <mxCell id="6aKqZ11WGvorcc52aC_h-35" value="Система моделирования&amp;nbsp;" style="shape=hexagon;perimeter=hexagonPerimeter2;whiteSpace=wrap;html=1;fixedSize=1;fillColor=#e1d5e7;strokeColor=#9673a6;" vertex="1" parent="1">
          <mxGeometry x="80" y="760" width="120" height="80" as="geometry" />
        </mxCell>
        <mxCell id="6aKqZ11WGvorcc52aC_h-36" style="edgeStyle=orthogonalEdgeStyle;rounded=0;orthogonalLoop=1;jettySize=auto;html=1;exitX=0.5;exitY=1;exitDx=0;exitDy=0;entryX=0.5;entryY=0;entryDx=0;entryDy=0;" edge="1" parent="1" source="6aKqZ11WGvorcc52aC_h-37" target="6aKqZ11WGvorcc52aC_h-39">
          <mxGeometry relative="1" as="geometry" />
        </mxCell>
        <mxCell id="6aKqZ11WGvorcc52aC_h-37" value="Выходные данные с временными интервалами задач" style="rounded=0;whiteSpace=wrap;html=1;fillColor=#d5e8d4;strokeColor=#82b366;" vertex="1" parent="1">
          <mxGeometry x="280" y="770" width="120" height="60" as="geometry" />
        </mxCell>
        <mxCell id="6aKqZ11WGvorcc52aC_h-38" style="edgeStyle=orthogonalEdgeStyle;rounded=0;orthogonalLoop=1;jettySize=auto;html=1;exitX=1;exitY=0.5;exitDx=0;exitDy=0;" edge="1" parent="1" source="6aKqZ11WGvorcc52aC_h-39" target="6aKqZ11WGvorcc52aC_h-20">
          <mxGeometry relative="1" as="geometry" />
        </mxCell>
        <mxCell id="6aKqZ11WGvorcc52aC_h-39" value="&amp;nbsp;Модификатор&amp;nbsp;&lt;br style=&quot;border-color: var(--border-color);&quot;&gt;&lt;span style=&quot;border-color: var(--border-color);&quot;&gt;данных&lt;/span&gt;" style="shape=hexagon;perimeter=hexagonPerimeter2;whiteSpace=wrap;html=1;fixedSize=1;fillColor=#e1d5e7;strokeColor=#9673a6;" vertex="1" parent="1">
          <mxGeometry x="280" y="870" width="120" height="80" as="geometry" />
        </mxCell>
        <mxCell id="6aKqZ11WGvorcc52aC_h-44" style="edgeStyle=orthogonalEdgeStyle;rounded=0;orthogonalLoop=1;jettySize=auto;html=1;exitX=1;exitY=0.5;exitDx=0;exitDy=0;entryX=0;entryY=0.5;entryDx=0;entryDy=0;" edge="1" parent="1" source="6aKqZ11WGvorcc52aC_h-41" target="6aKqZ11WGvorcc52aC_h-42">
          <mxGeometry relative="1" as="geometry" />
        </mxCell>
        <mxCell id="6aKqZ11WGvorcc52aC_h-41" value="input.ini" style="rounded=0;whiteSpace=wrap;html=1;fillColor=#d5e8d4;strokeColor=#82b366;shadow=0;glass=0;" vertex="1" parent="1">
          <mxGeometry y="1290" width="70" height="60" as="geometry" />
        </mxCell>
        <mxCell id="6aKqZ11WGvorcc52aC_h-110" style="edgeStyle=orthogonalEdgeStyle;rounded=0;orthogonalLoop=1;jettySize=auto;html=1;exitX=1;exitY=0.5;exitDx=0;exitDy=0;entryX=0;entryY=0.5;entryDx=0;entryDy=0;" edge="1" parent="1" source="6aKqZ11WGvorcc52aC_h-42" target="6aKqZ11WGvorcc52aC_h-108">
          <mxGeometry relative="1" as="geometry" />
        </mxCell>
        <mxCell id="6aKqZ11WGvorcc52aC_h-42" value="Write_xml_first_iter" style="shape=hexagon;perimeter=hexagonPerimeter2;whiteSpace=wrap;html=1;fixedSize=1;fillColor=#e1d5e7;strokeColor=#9673a6;" vertex="1" parent="1">
          <mxGeometry x="90" y="1280" width="120" height="80" as="geometry" />
        </mxCell>
        <mxCell id="6aKqZ11WGvorcc52aC_h-64" style="edgeStyle=orthogonalEdgeStyle;rounded=0;orthogonalLoop=1;jettySize=auto;html=1;exitX=1;exitY=0.5;exitDx=0;exitDy=0;entryX=0;entryY=0.5;entryDx=0;entryDy=0;" edge="1" parent="1" source="6aKqZ11WGvorcc52aC_h-45" target="6aKqZ11WGvorcc52aC_h-60">
          <mxGeometry relative="1" as="geometry" />
        </mxCell>
        <mxCell id="6aKqZ11WGvorcc52aC_h-113" style="edgeStyle=orthogonalEdgeStyle;rounded=0;orthogonalLoop=1;jettySize=auto;html=1;exitX=0;exitY=1;exitDx=0;exitDy=0;" edge="1" parent="1" source="6aKqZ11WGvorcc52aC_h-45">
          <mxGeometry relative="1" as="geometry">
            <mxPoint x="300" y="1430" as="targetPoint" />
            <Array as="points">
              <mxPoint x="430" y="1380" />
              <mxPoint x="300" y="1380" />
            </Array>
          </mxGeometry>
        </mxCell>
        <mxCell id="6aKqZ11WGvorcc52aC_h-115" style="edgeStyle=orthogonalEdgeStyle;rounded=0;orthogonalLoop=1;jettySize=auto;html=1;exitX=0.5;exitY=1;exitDx=0;exitDy=0;" edge="1" parent="1" source="6aKqZ11WGvorcc52aC_h-45" target="6aKqZ11WGvorcc52aC_h-65">
          <mxGeometry relative="1" as="geometry" />
        </mxCell>
        <mxCell id="6aKqZ11WGvorcc52aC_h-45" value="result.txt" style="rounded=0;whiteSpace=wrap;html=1;fillColor=#d5e8d4;strokeColor=#82b366;shadow=0;glass=0;" vertex="1" parent="1">
          <mxGeometry x="430" y="1290" width="120" height="60" as="geometry" />
        </mxCell>
        <mxCell id="6aKqZ11WGvorcc52aC_h-114" style="edgeStyle=orthogonalEdgeStyle;rounded=0;orthogonalLoop=1;jettySize=auto;html=1;exitX=0.375;exitY=1;exitDx=0;exitDy=0;entryX=1;entryY=0.5;entryDx=0;entryDy=0;" edge="1" parent="1" source="6aKqZ11WGvorcc52aC_h-60" target="6aKqZ11WGvorcc52aC_h-65">
          <mxGeometry relative="1" as="geometry" />
        </mxCell>
        <mxCell id="6aKqZ11WGvorcc52aC_h-60" value="create_map_window_to_task_name" style="shape=hexagon;perimeter=hexagonPerimeter2;whiteSpace=wrap;html=1;fixedSize=1;fillColor=#e1d5e7;strokeColor=#9673a6;" vertex="1" parent="1">
          <mxGeometry x="570" y="1280" width="220" height="80" as="geometry" />
        </mxCell>
        <mxCell id="6aKqZ11WGvorcc52aC_h-78" style="edgeStyle=orthogonalEdgeStyle;rounded=0;orthogonalLoop=1;jettySize=auto;html=1;exitX=0;exitY=0.5;exitDx=0;exitDy=0;entryX=0;entryY=0.5;entryDx=0;entryDy=0;" edge="1" parent="1" target="6aKqZ11WGvorcc52aC_h-74">
          <mxGeometry relative="1" as="geometry">
            <mxPoint x="180" y="1560" as="targetPoint" />
            <mxPoint x="360" y="1430" as="sourcePoint" />
            <Array as="points">
              <mxPoint x="180" y="1430" />
              <mxPoint x="180" y="1500" />
            </Array>
          </mxGeometry>
        </mxCell>
        <mxCell id="6aKqZ11WGvorcc52aC_h-80" style="edgeStyle=orthogonalEdgeStyle;rounded=0;orthogonalLoop=1;jettySize=auto;html=1;exitX=0;exitY=0.5;exitDx=0;exitDy=0;entryX=0;entryY=0.5;entryDx=0;entryDy=0;" edge="1" parent="1" target="6aKqZ11WGvorcc52aC_h-75">
          <mxGeometry relative="1" as="geometry">
            <mxPoint x="360" y="1430" as="sourcePoint" />
            <Array as="points">
              <mxPoint x="180" y="1430" />
              <mxPoint x="180" y="1570" />
            </Array>
          </mxGeometry>
        </mxCell>
        <mxCell id="6aKqZ11WGvorcc52aC_h-81" style="edgeStyle=orthogonalEdgeStyle;rounded=0;orthogonalLoop=1;jettySize=auto;html=1;exitX=0;exitY=0.5;exitDx=0;exitDy=0;entryX=0;entryY=0.5;entryDx=0;entryDy=0;" edge="1" parent="1" target="6aKqZ11WGvorcc52aC_h-79">
          <mxGeometry relative="1" as="geometry">
            <mxPoint x="360" y="1430" as="sourcePoint" />
            <Array as="points">
              <mxPoint x="180" y="1430" />
              <mxPoint x="180" y="1640" />
            </Array>
          </mxGeometry>
        </mxCell>
        <mxCell id="6aKqZ11WGvorcc52aC_h-82" style="edgeStyle=orthogonalEdgeStyle;rounded=0;orthogonalLoop=1;jettySize=auto;html=1;exitX=0;exitY=0.5;exitDx=0;exitDy=0;" edge="1" parent="1" target="6aKqZ11WGvorcc52aC_h-76">
          <mxGeometry relative="1" as="geometry">
            <mxPoint x="360" y="1430" as="sourcePoint" />
          </mxGeometry>
        </mxCell>
        <mxCell id="6aKqZ11WGvorcc52aC_h-83" style="edgeStyle=orthogonalEdgeStyle;rounded=0;orthogonalLoop=1;jettySize=auto;html=1;exitX=0;exitY=0.5;exitDx=0;exitDy=0;entryX=1;entryY=0.5;entryDx=0;entryDy=0;" edge="1" parent="1" target="6aKqZ11WGvorcc52aC_h-70">
          <mxGeometry relative="1" as="geometry">
            <mxPoint x="360" y="1430" as="sourcePoint" />
            <Array as="points">
              <mxPoint x="180" y="1430" />
              <mxPoint x="180" y="1500" />
            </Array>
          </mxGeometry>
        </mxCell>
        <mxCell id="6aKqZ11WGvorcc52aC_h-88" style="edgeStyle=orthogonalEdgeStyle;rounded=0;orthogonalLoop=1;jettySize=auto;html=1;exitX=0;exitY=0.5;exitDx=0;exitDy=0;entryX=1;entryY=0.5;entryDx=0;entryDy=0;" edge="1" parent="1" target="6aKqZ11WGvorcc52aC_h-86">
          <mxGeometry relative="1" as="geometry">
            <mxPoint x="360" y="1430" as="sourcePoint" />
            <Array as="points">
              <mxPoint x="180" y="1430" />
              <mxPoint x="180" y="1570" />
            </Array>
          </mxGeometry>
        </mxCell>
        <mxCell id="6aKqZ11WGvorcc52aC_h-89" style="edgeStyle=orthogonalEdgeStyle;rounded=0;orthogonalLoop=1;jettySize=auto;html=1;exitX=0;exitY=0.5;exitDx=0;exitDy=0;entryX=1;entryY=0.5;entryDx=0;entryDy=0;" edge="1" parent="1" source="6aKqZ11WGvorcc52aC_h-65" target="6aKqZ11WGvorcc52aC_h-87">
          <mxGeometry relative="1" as="geometry">
            <mxPoint x="360" y="1430" as="sourcePoint" />
            <Array as="points">
              <mxPoint x="180" y="1430" />
              <mxPoint x="180" y="1640" />
            </Array>
          </mxGeometry>
        </mxCell>
        <mxCell id="6aKqZ11WGvorcc52aC_h-65" value="Find_carsh_window_crash_set" style="shape=hexagon;perimeter=hexagonPerimeter2;whiteSpace=wrap;html=1;fixedSize=1;fillColor=#e1d5e7;strokeColor=#9673a6;" vertex="1" parent="1">
          <mxGeometry x="360" y="1390" width="220" height="70" as="geometry" />
        </mxCell>
        <mxCell id="6aKqZ11WGvorcc52aC_h-70" value="windows_nvp" style="rounded=1;whiteSpace=wrap;html=1;fillColor=#ffe6cc;strokeColor=#d79b00;" vertex="1" parent="1">
          <mxGeometry x="10" y="1470" width="120" height="60" as="geometry" />
        </mxCell>
        <mxCell id="6aKqZ11WGvorcc52aC_h-74" value="graph_main_crash" style="rounded=1;whiteSpace=wrap;html=1;fillColor=#ffe6cc;strokeColor=#d79b00;" vertex="1" parent="1">
          <mxGeometry x="220" y="1470" width="120" height="60" as="geometry" />
        </mxCell>
        <mxCell id="6aKqZ11WGvorcc52aC_h-75" value="app_graph_no_fault" style="rounded=1;whiteSpace=wrap;html=1;fillColor=#ffe6cc;strokeColor=#d79b00;" vertex="1" parent="1">
          <mxGeometry x="220" y="1540" width="120" height="60" as="geometry" />
        </mxCell>
        <mxCell id="6aKqZ11WGvorcc52aC_h-76" value="windows_nvp_no_fault" style="rounded=1;whiteSpace=wrap;html=1;fillColor=#ffe6cc;strokeColor=#d79b00;" vertex="1" parent="1">
          <mxGeometry x="10" y="1400" width="140" height="60" as="geometry" />
        </mxCell>
        <mxCell id="6aKqZ11WGvorcc52aC_h-79" value="app_graph_fault" style="rounded=1;whiteSpace=wrap;html=1;fillColor=#ffe6cc;strokeColor=#d79b00;" vertex="1" parent="1">
          <mxGeometry x="220" y="1610" width="120" height="60" as="geometry" />
        </mxCell>
        <mxCell id="6aKqZ11WGvorcc52aC_h-123" style="edgeStyle=orthogonalEdgeStyle;rounded=0;orthogonalLoop=1;jettySize=auto;html=1;exitX=1;exitY=0.5;exitDx=0;exitDy=0;entryX=0;entryY=0.5;entryDx=0;entryDy=0;" edge="1" parent="1" source="6aKqZ11WGvorcc52aC_h-84" target="6aKqZ11WGvorcc52aC_h-122">
          <mxGeometry relative="1" as="geometry" />
        </mxCell>
        <mxCell id="6aKqZ11WGvorcc52aC_h-84" value="write_nvp_xml_no_fault" style="shape=hexagon;perimeter=hexagonPerimeter2;whiteSpace=wrap;html=1;fixedSize=1;fillColor=#e1d5e7;strokeColor=#9673a6;" vertex="1" parent="1">
          <mxGeometry x="400" y="1580" width="140" height="80" as="geometry" />
        </mxCell>
        <mxCell id="6aKqZ11WGvorcc52aC_h-120" style="edgeStyle=orthogonalEdgeStyle;rounded=0;orthogonalLoop=1;jettySize=auto;html=1;exitX=1;exitY=0.5;exitDx=0;exitDy=0;entryX=0;entryY=0.5;entryDx=0;entryDy=0;" edge="1" parent="1" source="6aKqZ11WGvorcc52aC_h-85" target="6aKqZ11WGvorcc52aC_h-118">
          <mxGeometry relative="1" as="geometry" />
        </mxCell>
        <mxCell id="6aKqZ11WGvorcc52aC_h-85" value="write_nvp_xml_fault" style="shape=hexagon;perimeter=hexagonPerimeter2;whiteSpace=wrap;html=1;fixedSize=1;fillColor=#e1d5e7;strokeColor=#9673a6;" vertex="1" parent="1">
          <mxGeometry x="400" y="1495" width="140" height="80" as="geometry" />
        </mxCell>
        <mxCell id="6aKqZ11WGvorcc52aC_h-86" value="graph_reserve_window" style="rounded=1;whiteSpace=wrap;html=1;fillColor=#ffe6cc;strokeColor=#d79b00;" vertex="1" parent="1">
          <mxGeometry x="10" y="1540" width="130" height="60" as="geometry" />
        </mxCell>
        <mxCell id="6aKqZ11WGvorcc52aC_h-87" value="graph_fixator" style="rounded=1;whiteSpace=wrap;html=1;fillColor=#ffe6cc;strokeColor=#d79b00;" vertex="1" parent="1">
          <mxGeometry x="10" y="1610" width="120" height="60" as="geometry" />
        </mxCell>
        <mxCell id="6aKqZ11WGvorcc52aC_h-98" style="edgeStyle=orthogonalEdgeStyle;rounded=0;orthogonalLoop=1;jettySize=auto;html=1;exitX=1;exitY=0.5;exitDx=0;exitDy=0;entryX=0;entryY=0.5;entryDx=0;entryDy=0;" edge="1" parent="1" source="6aKqZ11WGvorcc52aC_h-90" target="6aKqZ11WGvorcc52aC_h-85">
          <mxGeometry relative="1" as="geometry" />
        </mxCell>
        <mxCell id="6aKqZ11WGvorcc52aC_h-99" style="edgeStyle=orthogonalEdgeStyle;rounded=0;orthogonalLoop=1;jettySize=auto;html=1;exitX=1;exitY=0.5;exitDx=0;exitDy=0;entryX=0;entryY=0.5;entryDx=0;entryDy=0;" edge="1" parent="1" source="6aKqZ11WGvorcc52aC_h-90" target="6aKqZ11WGvorcc52aC_h-84">
          <mxGeometry relative="1" as="geometry" />
        </mxCell>
        <mxCell id="6aKqZ11WGvorcc52aC_h-107" style="edgeStyle=orthogonalEdgeStyle;rounded=0;orthogonalLoop=1;jettySize=auto;html=1;exitX=1;exitY=0.5;exitDx=0;exitDy=0;" edge="1" parent="1" source="6aKqZ11WGvorcc52aC_h-108">
          <mxGeometry relative="1" as="geometry">
            <mxPoint x="330" y="1320" as="targetPoint" />
          </mxGeometry>
        </mxCell>
        <mxCell id="6aKqZ11WGvorcc52aC_h-108" value="test.xml" style="rounded=0;whiteSpace=wrap;html=1;fillColor=#d5e8d4;strokeColor=#82b366;shadow=0;glass=0;" vertex="1" parent="1">
          <mxGeometry x="230" y="1290" width="70" height="60" as="geometry" />
        </mxCell>
        <mxCell id="6aKqZ11WGvorcc52aC_h-112" style="edgeStyle=orthogonalEdgeStyle;rounded=0;orthogonalLoop=1;jettySize=auto;html=1;exitX=1;exitY=0.5;exitDx=0;exitDy=0;entryX=0;entryY=0.5;entryDx=0;entryDy=0;" edge="1" parent="1" source="6aKqZ11WGvorcc52aC_h-111" target="6aKqZ11WGvorcc52aC_h-45">
          <mxGeometry relative="1" as="geometry" />
        </mxCell>
        <mxCell id="6aKqZ11WGvorcc52aC_h-111" value="model&lt;br&gt;builder" style="rhombus;whiteSpace=wrap;html=1;fillColor=#f8cecc;strokeColor=#b85450;" vertex="1" parent="1">
          <mxGeometry x="330" y="1280" width="70" height="80" as="geometry" />
        </mxCell>
        <mxCell id="6aKqZ11WGvorcc52aC_h-124" style="edgeStyle=orthogonalEdgeStyle;rounded=0;orthogonalLoop=1;jettySize=auto;html=1;exitX=1;exitY=0.5;exitDx=0;exitDy=0;entryX=0;entryY=0.5;entryDx=0;entryDy=0;" edge="1" parent="1" source="6aKqZ11WGvorcc52aC_h-118" target="6aKqZ11WGvorcc52aC_h-119">
          <mxGeometry relative="1" as="geometry" />
        </mxCell>
        <mxCell id="6aKqZ11WGvorcc52aC_h-118" value="test_nvp.xml" style="rounded=0;whiteSpace=wrap;html=1;fillColor=#d5e8d4;strokeColor=#82b366;shadow=0;glass=0;" vertex="1" parent="1">
          <mxGeometry x="560" y="1505" width="90" height="60" as="geometry" />
        </mxCell>
        <mxCell id="6aKqZ11WGvorcc52aC_h-136" style="edgeStyle=orthogonalEdgeStyle;rounded=0;orthogonalLoop=1;jettySize=auto;html=1;exitX=1;exitY=0.5;exitDx=0;exitDy=0;entryX=1;entryY=0.5;entryDx=0;entryDy=0;" edge="1" parent="1" source="6aKqZ11WGvorcc52aC_h-119" target="6aKqZ11WGvorcc52aC_h-135">
          <mxGeometry relative="1" as="geometry">
            <Array as="points">
              <mxPoint x="780" y="1535" />
              <mxPoint x="780" y="1780" />
            </Array>
          </mxGeometry>
        </mxCell>
        <mxCell id="6aKqZ11WGvorcc52aC_h-119" value="model&lt;br&gt;builder" style="rhombus;whiteSpace=wrap;html=1;fillColor=#f8cecc;strokeColor=#b85450;" vertex="1" parent="1">
          <mxGeometry x="670" y="1495" width="70" height="80" as="geometry" />
        </mxCell>
        <mxCell id="6aKqZ11WGvorcc52aC_h-122" value="test_nvp.xml" style="rounded=0;whiteSpace=wrap;html=1;fillColor=#d5e8d4;strokeColor=#82b366;shadow=0;glass=0;" vertex="1" parent="1">
          <mxGeometry x="560" y="1590" width="90" height="60" as="geometry" />
        </mxCell>
        <mxCell id="6aKqZ11WGvorcc52aC_h-125" style="edgeStyle=orthogonalEdgeStyle;rounded=0;orthogonalLoop=1;jettySize=auto;html=1;exitX=1;exitY=0.5;exitDx=0;exitDy=0;entryX=0;entryY=0.5;entryDx=0;entryDy=0;" edge="1" parent="1" target="6aKqZ11WGvorcc52aC_h-126">
          <mxGeometry relative="1" as="geometry">
            <mxPoint x="650" y="1620" as="sourcePoint" />
          </mxGeometry>
        </mxCell>
        <mxCell id="6aKqZ11WGvorcc52aC_h-134" style="edgeStyle=orthogonalEdgeStyle;rounded=0;orthogonalLoop=1;jettySize=auto;html=1;exitX=1;exitY=0.5;exitDx=0;exitDy=0;entryX=1;entryY=0.5;entryDx=0;entryDy=0;" edge="1" parent="1" source="6aKqZ11WGvorcc52aC_h-126" target="6aKqZ11WGvorcc52aC_h-132">
          <mxGeometry relative="1" as="geometry" />
        </mxCell>
        <mxCell id="6aKqZ11WGvorcc52aC_h-126" value="model&lt;br&gt;builder" style="rhombus;whiteSpace=wrap;html=1;fillColor=#f8cecc;strokeColor=#b85450;" vertex="1" parent="1">
          <mxGeometry x="670" y="1580" width="70" height="80" as="geometry" />
        </mxCell>
        <mxCell id="6aKqZ11WGvorcc52aC_h-140" style="edgeStyle=orthogonalEdgeStyle;rounded=0;orthogonalLoop=1;jettySize=auto;html=1;exitX=0;exitY=0.5;exitDx=0;exitDy=0;" edge="1" parent="1" source="6aKqZ11WGvorcc52aC_h-132" target="6aKqZ11WGvorcc52aC_h-138">
          <mxGeometry relative="1" as="geometry" />
        </mxCell>
        <mxCell id="6aKqZ11WGvorcc52aC_h-132" value="parser_" style="shape=hexagon;perimeter=hexagonPerimeter2;whiteSpace=wrap;html=1;fixedSize=1;fillColor=#e1d5e7;strokeColor=#9673a6;" vertex="1" parent="1">
          <mxGeometry x="665" y="1680" width="80" height="60" as="geometry" />
        </mxCell>
        <mxCell id="6aKqZ11WGvorcc52aC_h-141" style="edgeStyle=orthogonalEdgeStyle;rounded=0;orthogonalLoop=1;jettySize=auto;html=1;exitX=0;exitY=0.5;exitDx=0;exitDy=0;" edge="1" parent="1" source="6aKqZ11WGvorcc52aC_h-135" target="6aKqZ11WGvorcc52aC_h-139">
          <mxGeometry relative="1" as="geometry" />
        </mxCell>
        <mxCell id="6aKqZ11WGvorcc52aC_h-135" value="parser_" style="shape=hexagon;perimeter=hexagonPerimeter2;whiteSpace=wrap;html=1;fixedSize=1;fillColor=#e1d5e7;strokeColor=#9673a6;" vertex="1" parent="1">
          <mxGeometry x="665" y="1750" width="80" height="60" as="geometry" />
        </mxCell>
        <mxCell id="6aKqZ11WGvorcc52aC_h-142" style="edgeStyle=orthogonalEdgeStyle;rounded=0;orthogonalLoop=1;jettySize=auto;html=1;exitX=0;exitY=0.5;exitDx=0;exitDy=0;" edge="1" parent="1" source="6aKqZ11WGvorcc52aC_h-138">
          <mxGeometry relative="1" as="geometry">
            <mxPoint x="530" y="1709.8095238095239" as="targetPoint" />
          </mxGeometry>
        </mxCell>
        <mxCell id="6aKqZ11WGvorcc52aC_h-138" value="vision" style="shape=hexagon;perimeter=hexagonPerimeter2;whiteSpace=wrap;html=1;fixedSize=1;fillColor=#e1d5e7;strokeColor=#9673a6;" vertex="1" parent="1">
          <mxGeometry x="560" y="1680" width="80" height="60" as="geometry" />
        </mxCell>
        <mxCell id="6aKqZ11WGvorcc52aC_h-146" style="edgeStyle=orthogonalEdgeStyle;rounded=0;orthogonalLoop=1;jettySize=auto;html=1;exitX=0;exitY=0.5;exitDx=0;exitDy=0;entryX=1;entryY=0.5;entryDx=0;entryDy=0;" edge="1" parent="1" source="6aKqZ11WGvorcc52aC_h-139" target="6aKqZ11WGvorcc52aC_h-144">
          <mxGeometry relative="1" as="geometry" />
        </mxCell>
        <mxCell id="6aKqZ11WGvorcc52aC_h-139" value="vision" style="shape=hexagon;perimeter=hexagonPerimeter2;whiteSpace=wrap;html=1;fixedSize=1;fillColor=#e1d5e7;strokeColor=#9673a6;" vertex="1" parent="1">
          <mxGeometry x="560" y="1750" width="80" height="60" as="geometry" />
        </mxCell>
        <mxCell id="6aKqZ11WGvorcc52aC_h-148" style="edgeStyle=orthogonalEdgeStyle;rounded=0;orthogonalLoop=1;jettySize=auto;html=1;exitX=0;exitY=0.5;exitDx=0;exitDy=0;" edge="1" parent="1" source="6aKqZ11WGvorcc52aC_h-143" target="6aKqZ11WGvorcc52aC_h-147">
          <mxGeometry relative="1" as="geometry" />
        </mxCell>
        <mxCell id="6aKqZ11WGvorcc52aC_h-143" value="no_fault.png" style="rounded=0;whiteSpace=wrap;html=1;fillColor=#d5e8d4;strokeColor=#82b366;shadow=0;glass=0;" vertex="1" parent="1">
          <mxGeometry x="440" y="1680" width="90" height="60" as="geometry" />
        </mxCell>
        <mxCell id="6aKqZ11WGvorcc52aC_h-150" style="edgeStyle=orthogonalEdgeStyle;rounded=0;orthogonalLoop=1;jettySize=auto;html=1;exitX=0;exitY=0.5;exitDx=0;exitDy=0;entryX=1;entryY=0.5;entryDx=0;entryDy=0;" edge="1" parent="1" source="6aKqZ11WGvorcc52aC_h-144" target="6aKqZ11WGvorcc52aC_h-147">
          <mxGeometry relative="1" as="geometry" />
        </mxCell>
        <mxCell id="6aKqZ11WGvorcc52aC_h-144" value="no_fault.png" style="rounded=0;whiteSpace=wrap;html=1;fillColor=#d5e8d4;strokeColor=#82b366;shadow=0;glass=0;" vertex="1" parent="1">
          <mxGeometry x="440" y="1750" width="90" height="60" as="geometry" />
        </mxCell>
        <mxCell id="6aKqZ11WGvorcc52aC_h-151" style="edgeStyle=orthogonalEdgeStyle;rounded=0;orthogonalLoop=1;jettySize=auto;html=1;exitX=0;exitY=0.5;exitDx=0;exitDy=0;" edge="1" parent="1" source="6aKqZ11WGvorcc52aC_h-147">
          <mxGeometry relative="1" as="geometry">
            <mxPoint x="210" y="1729.7777777777778" as="targetPoint" />
          </mxGeometry>
        </mxCell>
        <mxCell id="6aKqZ11WGvorcc52aC_h-147" value="create_double_visualization" style="shape=hexagon;perimeter=hexagonPerimeter2;whiteSpace=wrap;html=1;fixedSize=1;fillColor=#e1d5e7;strokeColor=#9673a6;" vertex="1" parent="1">
          <mxGeometry x="230" y="1690" width="170" height="80" as="geometry" />
        </mxCell>
        <mxCell id="6aKqZ11WGvorcc52aC_h-152" value="result.png" style="rounded=0;whiteSpace=wrap;html=1;fillColor=#d5e8d4;strokeColor=#82b366;shadow=0;glass=0;" vertex="1" parent="1">
          <mxGeometry x="120" y="1700" width="90" height="60" as="geometry" />
        </mxCell>
        <mxCell id="6aKqZ11WGvorcc52aC_h-154" value="" style="shape=flexArrow;endArrow=classic;html=1;rounded=0;" edge="1" parent="1">
          <mxGeometry width="50" height="50" relative="1" as="geometry">
            <mxPoint x="36" y="909.71" as="sourcePoint" />
            <mxPoint x="80" y="909.71" as="targetPoint" />
          </mxGeometry>
        </mxCell>
        <mxCell id="6aKqZ11WGvorcc52aC_h-155" value="" style="shape=flexArrow;endArrow=classic;html=1;rounded=0;" edge="1" parent="1">
          <mxGeometry width="50" height="50" relative="1" as="geometry">
            <mxPoint x="36" y="977.71" as="sourcePoint" />
            <mxPoint x="80" y="977.71" as="targetPoint" />
          </mxGeometry>
        </mxCell>
      </root>
    </mxGraphModel>
  </diagram>
</mxfile>
